<svg width="27" height="33" viewBox="0 0 27 33" fill="none" xmlns="http://www.w3.org/2000/svg">
<g clip-path="url(#clip0_32_25)">
<path d="M25.5988 30.8176C24.412 30.1923 23.7608 29.845 22.4496 27.5497C22.0981 26.874 21.8168 26.164 21.6102 25.4309C21.176 24.0821 20.6868 22.5509 19.3467 21.3786C18.4545 20.6326 17.4043 20.0991 16.2756 19.8185C18.733 18.516 22.9706 15.6852 22.5596 11.8384C22.5099 11.3252 22.3409 10.8307 22.0659 10.3944C21.791 9.95817 21.4179 9.59229 20.9763 9.32602C19.914 8.70371 18.4233 8.72397 17.1787 9.37522C15.2626 10.3825 14.1569 12.3971 13.2711 14.0064L13.0628 14.3885C12.2176 15.9139 11.4592 17.4885 10.724 19.0196L10.533 19.4162C8.79629 19.6912 6.86278 19.558 5.4329 18.2584C2.40527 15.5318 5.31134 11.0396 6.70358 9.23629C8.81945 6.48364 11.6445 4.26357 14.4492 3.14051C17.7981 1.80326 20.8402 2.07534 23.4916 3.95675C23.6152 4.04999 23.7563 4.11748 23.9064 4.15524C24.0566 4.19299 24.2128 4.20024 24.3658 4.17656C24.5188 4.15288 24.6656 4.09874 24.7973 4.01736C24.929 3.93597 25.0431 3.82899 25.1327 3.70274C25.2224 3.5765 25.2858 3.43355 25.3192 3.28236C25.3527 3.13117 25.3554 2.97481 25.3273 2.82254C25.2993 2.67026 25.241 2.52516 25.1558 2.39583C25.0707 2.26649 24.9605 2.15554 24.8317 2.06955C21.5436 -0.2634 17.6563 -0.636792 13.5896 0.989907C10.4056 2.26348 7.22169 4.75274 4.86847 7.82089C1.15485 12.646 0.787247 17.1903 3.88434 19.9777C4.6948 20.71 6.48939 21.9141 9.39835 21.8504C9.33756 21.9923 9.27676 22.1399 9.21887 22.2702C7.79768 25.5872 6.3244 29.0201 1.37483 30.7452C1.11202 30.8336 0.889657 31.0133 0.748165 31.2518C0.606672 31.4902 0.555446 31.7715 0.603812 32.0446C0.652177 32.3176 0.796919 32.5642 1.01171 32.7395C1.22651 32.9149 1.4971 33.0073 1.77427 33C1.90427 33.0001 2.03339 32.9785 2.15635 32.9363C8.07267 30.8726 9.89909 26.609 11.3637 23.1848C11.5981 22.6406 11.821 22.1254 12.0497 21.6276C14.7792 21.6507 16.7272 22.1544 17.8387 23.124C18.707 23.8737 19.0341 24.9244 19.4248 26.1401C19.6769 27.027 20.0223 27.8847 20.4553 28.6988C21.9372 31.3038 22.8779 31.9898 24.5336 32.8668C24.7008 32.9539 24.8864 32.9996 25.0749 33C25.3338 33.0005 25.5855 32.9142 25.7896 32.7548C25.9937 32.5954 26.1385 32.3722 26.2008 32.1209C26.2632 31.8696 26.2394 31.6046 26.1334 31.3683C26.0274 31.132 25.8453 30.9381 25.6161 30.8176H25.5988ZM15.0889 15.5115L15.2973 15.1324C16.0354 13.7864 16.9529 12.1105 18.2526 11.4303C18.5473 11.2755 18.8748 11.1931 19.2077 11.1901C19.4162 11.1824 19.6231 11.2303 19.8069 11.329C19.9351 11.412 20.0421 11.5238 20.1195 11.6554C20.1969 11.7871 20.2425 11.935 20.2527 12.0874C20.4958 14.3508 17.4855 16.6693 14.5853 18.0847C14.3305 18.2092 13.9629 18.3742 13.5172 18.5565C14.0208 17.5319 14.5418 16.5043 15.0889 15.5115Z" fill="#EED7CF"/>
</g>
<defs>
<clipPath id="clip0_32_25">
<rect width="25.6162" height="33" fill="white" transform="translate(0.60199)"/>
</clipPath>
</defs>
</svg>
