
<svg version="1.1" id="Layer_1" xmlns="http://www.w3.org/2000/svg" xmlns:xlink="http://www.w3.org/1999/xlink" x="0px" y="0px"
	 viewBox="0 0 800 800" style="enable-background:new 0 0 800 800;" xml:space="preserve">
<path d="M603.3,287.6c-2.2,56.5-23.6,110.6-60.6,153.3c-11,12.2-19.3,26.5-24.6,42.1v43.7c0,22.1-17.9,40-40,40H321.9
	c-22.1,0-40-17.9-40-40v-43.7c-5.3-15.6-13.6-29.9-24.6-42.1c-37.1-42.7-58.5-96.8-60.7-153.3c0-112.3,91-203.4,203.4-203.4
	c81.8,0,155.6,49,187.4,124.3C598,233.5,603.4,260.5,603.3,287.6L603.3,287.6z M498.1,613.6c0,11-8.9,20-20,20c0,0,0,0,0,0H321.9
	c-11,0-20-9-20-20c0-11,9-20,20-20h156.2C489.1,593.6,498.1,602.5,498.1,613.6z M471.2,666.7c1.4,4,0.1,8.5-3.3,11.2
	c-40.6,31.5-97.3,31.5-137.9,0c-4.4-3.4-5.2-9.6-1.8-14c1.9-2.5,4.8-3.9,7.9-3.9h125.6C466,660,469.8,662.7,471.2,666.7L471.2,666.7
	z"/>
</svg>
