<svg width="45" height="45" viewBox="-1 -3 52 56" fill="none" xmlns="http://www.w3.org/2000/svg">
<path d="M50.2463 24.9235C50.5129 27.4316 50.5062 29.9612 50.2264 32.4678C49.6349 37.302 47.3003 42.1875 42.9552 44.8577C39.4944 46.9848 35.209 47.4852 31.0885 47.8521C25.313 48.3668 17.5441 50.1697 12.1696 47.8265C9.67166 46.7545 7.43291 45.159 5.60454 43.1476C3.77616 41.1363 2.40074 38.7559 1.57119 36.1674C-0.450656 29.7379 0.737996 22.7538 3.20346 16.4636C5.19403 11.3848 7.96377 7.30699 13.3952 5.21404C19.4949 2.85948 27.4287 -0.24865 34.1398 0.0158114C42.4518 0.33999 46.45 7.30699 48.1818 14.0209C49.1491 17.5967 49.8394 21.2417 50.2463 24.9235Z" fill="#FF753A">
  <animateTransform
    attributeName="transform"
    attributeType="XML"
    type="rotate"
    from="0 25 25"
    to="360 25 25"
    dur="5s"
    repeatCount="indefinite"/>
</path>
<path id="g" d="M36.8498 38.5618C35.6838 37.9447 35.044 37.6063 33.7558 35.3513C33.4106 34.6874 33.1342 33.9899 32.9312 33.2697C32.5046 31.9446 32.024 30.426 30.7074 29.2886C29.8306 28.5565 28.7989 28.0334 27.6903 27.7587C30.1046 26.4762 34.2677 23.6951 33.8639 19.9187C33.8151 19.4141 33.6491 18.9278 33.379 18.4988C33.1089 18.0697 32.7423 17.7097 32.3084 17.4475C31.2648 16.839 29.8003 16.8589 28.5775 17.4987C26.695 18.4855 25.6087 20.4647 24.7386 22.0486L24.5367 22.4126C23.7063 23.9112 22.9613 25.4553 22.239 26.9625L22.0513 27.3492C20.3451 27.6336 18.4455 27.4914 17.0407 26.2259C14.0662 23.55 16.9213 19.1367 18.2891 17.3622C20.3678 14.6607 23.1432 12.4796 25.8988 11.3763C29.1889 10.0597 32.1776 10.3298 34.7824 12.1782C34.9043 12.2647 35.0421 12.3262 35.1878 12.3594C35.3335 12.3927 35.4844 12.3968 35.6317 12.3718C35.7791 12.3467 35.92 12.2928 36.0466 12.2132C36.1731 12.1337 36.2827 12.03 36.3692 11.908C36.4556 11.7861 36.5172 11.6484 36.5504 11.5026C36.5836 11.3569 36.5878 11.2061 36.5627 11.0587C36.5376 10.9114 36.4838 10.7704 36.4042 10.6439C36.3247 10.5173 36.221 10.4077 36.099 10.3213C32.8686 8.03213 29.0496 7.66529 25.0542 9.26344C21.9262 10.5118 18.7981 12.9602 16.4862 15.9745C12.8378 20.7121 12.4766 25.1766 15.5194 27.9179C16.3156 28.6345 18.0787 29.8203 20.9366 29.7578C20.8768 29.8943 20.8171 30.0421 20.7603 30.1673C19.364 33.429 17.9166 36.7987 13.0539 38.4964C12.7995 38.5844 12.5845 38.7599 12.4473 38.9916C12.31 39.2233 12.2594 39.4961 12.3045 39.7616C12.3495 40.027 12.4873 40.2679 12.6932 40.4414C12.8992 40.6148 13.16 40.7096 13.4293 40.7088C13.5573 40.7092 13.6843 40.6871 13.8046 40.6434C19.6171 38.6158 21.4115 34.4299 22.8504 31.063C23.0807 30.5313 23.2997 30.0251 23.5243 29.536C26.2059 29.5559 28.1197 30.0507 29.2117 31.0033C30.0648 31.7398 30.3861 32.7721 30.77 33.9693C31.0171 34.8399 31.3565 35.6816 31.7823 36.4802C33.2383 39.0395 34.1625 39.7163 35.7891 40.5751C35.9528 40.6624 36.1353 40.7082 36.3208 40.7088C36.5752 40.7092 36.8225 40.6244 37.023 40.4679C37.2235 40.3113 37.3658 40.092 37.427 39.8451C37.4883 39.5982 37.465 39.3378 37.3608 39.1057C37.2567 38.8736 37.0778 38.6831 36.8526 38.5646L36.8498 38.5618ZM26.5158 23.5245L26.7206 23.1491C27.4457 21.8268 28.3472 20.1831 29.624 19.512C29.9141 19.3611 30.2355 19.2803 30.5624 19.276C30.7671 19.2699 30.9699 19.3169 31.151 19.4125C31.2772 19.4945 31.3825 19.6048 31.4585 19.7346C31.5345 19.8645 31.5792 20.0102 31.589 20.1604C31.8278 22.3813 28.8704 24.6591 26.0211 26.0496C25.7708 26.1719 25.4097 26.334 24.9717 26.5131C25.4751 25.5093 25.9869 24.4998 26.5158 23.5245Z" fill="#fff"/>
</svg>
